<?xml version="1.0" encoding="utf-8"?>
<!-- Generator: Adobe Illustrator 21.1.0, SVG Export Plug-In . SVG Version: 6.00 Build 0)  -->
<svg version="1.1" id="Layer_1" xmlns="http://www.w3.org/2000/svg" xmlns:xlink="http://www.w3.org/1999/xlink" x="0px" y="0px"
	 width="841.9px" height="595.3px" viewBox="0 0 841.9 595.3" style="enable-background:new 0 0 841.9 595.3;" xml:space="preserve"
	>
<style type="text/css">
	.st0{fill:#FF6633;}
	.st1{fill:#FFFFFF;}
</style>
<path class="st0" d="M92.8,127.2l5.1,14.9l5.1-14.9h5.9l-8.8,22.1h-4.4l-8.8-22.1C86.9,127.2,92.8,127.2,92.8,127.2z"/>
<path class="st0" d="M122.1,145.8c3.7,0,5.8-1.8,7.8-4.4c1.1-1.4,2.5-1.7,3.5-0.9s1.1,2.3,0,3.7c-2.9,3.8-6.6,6.1-11.3,6.1
	c-5.1,0-9.6-2.8-12.7-7.7c-0.9-1.3-0.7-2.7,0.3-3.4s2.5-0.4,3.4,1C115.3,143.5,118.3,145.8,122.1,145.8z M129,133.5c0,1.8-1.4,3-3,3
	s-3-1.2-3-3s1.4-3,3-3S129,131.8,129,133.5z"/>
<path class="st0" d="M143.1,127.2v3c1.5-2.1,3.8-3.6,7.2-3.6c4.3,0,9.3,3.6,9.3,11.3c0,8.1-4.8,12-9.8,12c-2.6,0-5-1-6.8-3.5V157
	h-5.4v-29.8H143.1z M143.1,138.2c0,4.5,2.6,6.9,5.5,6.9c2.8,0,5.6-2.2,5.6-6.9c0-4.6-2.8-6.8-5.6-6.8
	C145.7,131.4,143.1,133.5,143.1,138.2z"/>
<path class="st0" d="M169.1,127.2v3c1.5-2.1,3.8-3.6,7.2-3.6c4.3,0,9.3,3.6,9.3,11.3c0,8.1-4.8,12-9.8,12c-2.6,0-5-1-6.8-3.5V157
	h-5.4v-29.8H169.1z M169.1,138.2c0,4.5,2.6,6.9,5.5,6.9c2.8,0,5.6-2.2,5.6-6.9c0-4.6-2.8-6.8-5.6-6.8
	C171.7,131.4,169.1,133.5,169.1,138.2z"/>
<path class="st0" d="M197.1,126.6c4.5,0,7.7,2.1,9.1,7.3l-4.9,0.8c-0.1-2.6-1.7-3.5-4.1-3.5c-1.8,0-3.2,0.8-3.2,2.1
	c0,1,0.7,2,2.8,2.4l3.7,0.7c3.6,0.7,5.6,3.1,5.6,6.3c0,4.8-4.3,7.2-8.4,7.2c-4.3,0-9.1-2.2-9.8-7.6l4.9-0.8c0.3,2.8,2,3.8,4.8,3.8
	c2.1,0,3.5-0.8,3.5-2.1c0-1.2-0.7-2.1-3-2.5l-3.4-0.6c-3.6-0.7-5.8-3.2-5.8-6.4C189,128.7,193.5,126.6,197.1,126.6z"/>
<path class="st0" d="M92.8,173.2l5.1,14.9l5.1-14.9h5.9l-8.8,22.1h-4.4l-8.8-22.1H92.8z"/>
<path class="st0" d="M120.9,190.8c-3.7,0-5.8,1.8-7.8,4.4c-1.1,1.4-2.5,1.6-3.5,0.9c-1-0.8-1.1-2.3,0-3.7c2.9-3.8,6.6-6.1,11.3-6.1
	c5.1,0,9.6,2.8,12.7,7.7c0.9,1.3,0.7,2.8-0.3,3.5s-2.5,0.4-3.4-1C127.7,193.1,124.7,190.8,120.9,190.8z M129,179.6c0,1.8-1.4,3-3,3
	s-3-1.2-3-3s1.4-3,3-3S129,177.8,129,179.6z"/>
<path class="st0" d="M143.1,173.3v3c1.5-2.1,3.8-3.6,7.2-3.6c4.3,0,9.3,3.6,9.3,11.3c0,8.1-4.8,12-9.8,12c-2.6,0-5-1-6.8-3.5V203
	h-5.4v-29.8h5.5V173.3z M143.1,184.2c0,4.5,2.6,6.9,5.5,6.9c2.8,0,5.6-2.2,5.6-6.9c0-4.6-2.8-6.8-5.6-6.8
	C145.7,177.4,143.1,179.5,143.1,184.2z"/>
<path class="st0" d="M169.1,173.3v3c1.5-2.1,3.8-3.6,7.2-3.6c4.3,0,9.3,3.6,9.3,11.3c0,8.1-4.8,12-9.8,12c-2.6,0-5-1-6.8-3.5V203
	h-5.4v-29.8h5.5V173.3z M169.1,184.2c0,4.5,2.6,6.9,5.5,6.9c2.8,0,5.6-2.2,5.6-6.9c0-4.6-2.8-6.8-5.6-6.8
	C171.7,177.4,169.1,179.5,169.1,184.2z"/>
<path class="st0" d="M197.1,172.7c4.5,0,7.7,2.1,9.1,7.3l-4.9,0.8c-0.1-2.6-1.7-3.5-4.1-3.5c-1.8,0-3.2,0.8-3.2,2.1
	c0,1,0.7,2,2.8,2.4l3.7,0.7c3.6,0.7,5.6,3.1,5.6,6.3c0,4.8-4.3,7.2-8.4,7.2c-4.3,0-9.1-2.2-9.8-7.6l4.9-0.8c0.3,2.8,2,3.8,4.8,3.8
	c2.1,0,3.5-0.8,3.5-2.1c0-1.2-0.7-2.1-3-2.5l-3.4-0.6c-3.6-0.7-5.8-3.2-5.8-6.4C189,174.7,193.5,172.7,197.1,172.7z"/>
<path class="st0" d="M92.8,219.3l5.1,14.9l5.1-14.9h5.9l-8.8,22.1h-4.4l-8.8-22.1H92.8z"/>
<path class="st0" d="M129.7,240.1c0,4.4-3.6,8-8,8s-8-3.6-8-8s3.6-8,8-8S129.7,235.7,129.7,240.1z M118.1,240.1
	c0,2.1,1.6,3.6,3.6,3.6s3.6-1.6,3.6-3.6s-1.6-3.6-3.6-3.6C119.8,236.5,118.1,238,118.1,240.1z M129,225.6c0,1.8-1.4,3-3,3
	s-3-1.2-3-3s1.4-3,3-3S129,223.8,129,225.6z"/>
<path class="st0" d="M143.1,219.3v3c1.5-2.1,3.8-3.6,7.2-3.6c4.3,0,9.3,3.6,9.3,11.3c0,8.1-4.8,12-9.8,12c-2.6,0-5-1-6.8-3.5v10.6
	h-5.4v-29.8H143.1z M143.1,230.3c0,4.5,2.6,6.9,5.5,6.9c2.8,0,5.6-2.2,5.6-6.9c0-4.6-2.8-6.8-5.6-6.8
	C145.7,223.4,143.1,225.5,143.1,230.3z"/>
<path class="st0" d="M169.1,219.3v3c1.5-2.1,3.8-3.6,7.2-3.6c4.3,0,9.3,3.6,9.3,11.3c0,8.1-4.8,12-9.8,12c-2.6,0-5-1-6.8-3.5v10.6
	h-5.4v-29.8H169.1z M169.1,230.3c0,4.5,2.6,6.9,5.5,6.9c2.8,0,5.6-2.2,5.6-6.9c0-4.6-2.8-6.8-5.6-6.8
	C171.7,223.4,169.1,225.5,169.1,230.3z"/>
<path class="st0" d="M197.1,218.7c4.5,0,7.7,2.1,9.1,7.3l-4.9,0.8c-0.1-2.6-1.7-3.5-4.1-3.5c-1.8,0-3.2,0.8-3.2,2.1
	c0,1,0.7,2,2.8,2.4l3.7,0.7c3.6,0.7,5.6,3.1,5.6,6.3c0,4.8-4.3,7.2-8.4,7.2c-4.3,0-9.1-2.2-9.8-7.6l4.9-0.8c0.3,2.8,2,3.8,4.8,3.8
	c2.1,0,3.5-0.8,3.5-2.1c0-1.2-0.7-2.1-3-2.5l-3.4-0.6c-3.6-0.7-5.8-3.2-5.8-6.4C189,220.8,193.5,218.7,197.1,218.7z"/>
<path class="st0" d="M92.8,265.3l5.1,14.9l5.1-14.9h5.9l-8.8,22.1h-4.4l-8.8-22.1H92.8z"/>
<path class="st0" d="M130.5,280c1.8,0,2.6,1,2.6,2.2s-0.8,2.2-2.6,2.2h-19.1c-1.8,0-2.6-1-2.6-2.2s0.8-2.2,2.6-2.2H130.5z
	 M129,271.6c0,1.8-1.3,3-3,3s-3-1.2-3-3s1.3-3,3-3S129,269.8,129,271.6z"/>
<path class="st0" d="M143.1,265.3v3c1.5-2.1,3.8-3.6,7.2-3.6c4.3,0,9.3,3.6,9.3,11.3c0,8.1-4.8,12-9.8,12c-2.6,0-5-1-6.8-3.5v10.6
	h-5.4v-29.8H143.1z M143.1,276.3c0,4.5,2.6,6.9,5.5,6.9c2.8,0,5.6-2.2,5.6-6.9c0-4.6-2.8-6.8-5.6-6.8
	C145.7,269.5,143.1,271.6,143.1,276.3z"/>
<path class="st0" d="M169.1,265.3v3c1.5-2.1,3.8-3.6,7.2-3.6c4.3,0,9.3,3.6,9.3,11.3c0,8.1-4.8,12-9.8,12c-2.6,0-5-1-6.8-3.5v10.6
	h-5.4v-29.8H169.1z M169.1,276.3c0,4.5,2.6,6.9,5.5,6.9c2.8,0,5.6-2.2,5.6-6.9c0-4.6-2.8-6.8-5.6-6.8
	C171.7,269.5,169.1,271.6,169.1,276.3z"/>
<path class="st0" d="M197.1,264.7c4.5,0,7.7,2.1,9.1,7.3l-4.9,0.8c-0.1-2.6-1.7-3.5-4.1-3.5c-1.8,0-3.2,0.8-3.2,2.1
	c0,1,0.7,2,2.8,2.4l3.7,0.7c3.6,0.7,5.6,3.1,5.6,6.3c0,4.8-4.3,7.2-8.4,7.2c-4.3,0-9.1-2.2-9.8-7.6l4.9-0.8c0.3,2.8,2,3.8,4.8,3.8
	c2.1,0,3.5-0.8,3.5-2.1c0-1.2-0.7-2.1-3-2.5l-3.4-0.6c-3.6-0.7-5.8-3.2-5.8-6.4C189,266.8,193.5,264.7,197.1,264.7z"/>
<path class="st0" d="M92.8,311.3l5.1,14.9l5.1-14.9h5.9l-8.8,22.1h-4.4l-8.8-22.1H92.8z"/>
<path class="st0" d="M127.1,329.1c1.6-0.3,3,0.3,3.2,1.5c0.2,1.3-0.6,2.5-2.2,2.8c-7.5,1.6-13.5-1.9-16.7-9.9
	c-0.6-1.5-0.2-2.8,1-3.3c1.3-0.5,2.6,0.1,3.1,1.5C117.8,327.5,121.8,330.3,127.1,329.1z M129,317.6c0,1.8-1.4,3-3,3s-3-1.2-3-3
	s1.4-3,3-3S129,315.9,129,317.6z"/>
<path class="st0" d="M143.1,311.4v3c1.5-2.1,3.8-3.6,7.2-3.6c4.3,0,9.3,3.6,9.3,11.3c0,8.1-4.8,12-9.8,12c-2.6,0-5-1-6.8-3.5v10.6
	h-5.4v-29.8H143.1z M143.1,322.3c0,4.5,2.6,6.9,5.5,6.9c2.8,0,5.6-2.2,5.6-6.9c0-4.6-2.8-6.8-5.6-6.8
	C145.7,315.5,143.1,317.6,143.1,322.3z"/>
<path class="st0" d="M169.1,311.4v3c1.5-2.1,3.8-3.6,7.2-3.6c4.3,0,9.3,3.6,9.3,11.3c0,8.1-4.8,12-9.8,12c-2.6,0-5-1-6.8-3.5v10.6
	h-5.4v-29.8H169.1z M169.1,322.3c0,4.5,2.6,6.9,5.5,6.9c2.8,0,5.6-2.2,5.6-6.9c0-4.6-2.8-6.8-5.6-6.8
	C171.7,315.5,169.1,317.6,169.1,322.3z"/>
<path class="st0" d="M197.1,310.7c4.5,0,7.7,2.1,9.1,7.3l-4.9,0.8c-0.1-2.6-1.7-3.5-4.1-3.5c-1.8,0-3.2,0.8-3.2,2.1
	c0,1,0.7,2,2.8,2.4l3.7,0.7c3.6,0.7,5.6,3.1,5.6,6.3c0,4.8-4.3,7.2-8.4,7.2c-4.3,0-9.1-2.2-9.8-7.6l4.9-0.8c0.3,2.8,2,3.8,4.8,3.8
	c2.1,0,3.5-0.8,3.5-2.1c0-1.2-0.7-2.1-3-2.5l-3.4-0.6c-3.6-0.7-5.8-3.2-5.8-6.4C189,312.8,193.5,310.7,197.1,310.7z"/>
<path class="st0" d="M92.8,357.3l5.1,14.9l5.1-14.9h5.9l-8.8,22.1h-4.4l-8.8-22.1H92.8z"/>
<path class="st0" d="M109.6,369.3c1-0.7,2.5-0.4,3.4,1c2.3,3.4,5.3,5.7,9.1,5.7c3.7,0,5.8-1.8,7.8-4.4c1.1-1.4,2.5-1.7,3.5-0.9
	c1,0.8,1.1,2.3,0,3.7c-2.9,3.8-6.3,6.1-11.3,6.1c-5.1,0-9.6-2.8-12.7-7.7C108.4,371.4,108.7,370,109.6,369.3z M127,362.6
	c-0.3,0.1-0.3,0.4,0,0.5l2.5,0.3c1.5,0.2,2.1,1.3,1.9,2.4c-0.3,1.2-1.3,1.8-2.9,1.4l-5.6-1.4c-1.7-0.4-2.2-1.3-2.2-2.3
	c0-0.8,0.4-1.5,1.7-2.2l4.8-2.6c1.8-1,3.2-0.7,3.8,0.3c0.6,1.2,0,2.4-1.3,2.8L127,362.6z"/>
<path class="st0" d="M143.1,357.4v3c1.5-2.1,3.8-3.6,7.2-3.6c4.3,0,9.3,3.6,9.3,11.3c0,8.1-4.8,12-9.8,12c-2.6,0-5-1-6.8-3.5v10.6
	h-5.4v-29.8H143.1z M143.1,368.4c0,4.5,2.6,6.9,5.5,6.9c2.8,0,5.6-2.2,5.6-6.9c0-4.6-2.8-6.8-5.6-6.8
	C145.7,361.5,143.1,363.6,143.1,368.4z"/>
<path class="st0" d="M169.1,357.4v3c1.5-2.1,3.8-3.6,7.2-3.6c4.3,0,9.3,3.6,9.3,11.3c0,8.1-4.8,12-9.8,12c-2.6,0-5-1-6.8-3.5v10.6
	h-5.4v-29.8H169.1z M169.1,368.4c0,4.5,2.6,6.9,5.5,6.9c2.8,0,5.6-2.2,5.6-6.9c0-4.6-2.8-6.8-5.6-6.8
	C171.7,361.5,169.1,363.6,169.1,368.4z"/>
<path class="st0" d="M197.1,356.8c4.5,0,7.7,2.1,9.1,7.3l-4.9,0.8c-0.1-2.6-1.7-3.5-4.1-3.5c-1.8,0-3.2,0.8-3.2,2.1
	c0,1,0.7,2,2.8,2.4l3.7,0.7c3.6,0.7,5.6,3.1,5.6,6.3c0,4.8-4.3,7.2-8.4,7.2c-4.3,0-9.1-2.2-9.8-7.6l4.9-0.8c0.3,2.8,2,3.8,4.8,3.8
	c2.1,0,3.5-0.8,3.5-2.1c0-1.2-0.7-2.1-3-2.5l-3.4-0.6c-3.6-0.7-5.8-3.2-5.8-6.4C189,358.8,193.5,356.8,197.1,356.8z"/>
<path class="st0" d="M92.8,403.4l5.1,14.9l5.1-14.9h5.9l-8.8,22.1h-4.4l-8.8-22.1H92.8z"/>
<path class="st0" d="M126.2,421c0,1.3-0.6,2.5-2.2,3.6c1.6,1.1,2.2,2.4,2.2,3.9c0,3.3-3.3,4.8-6.5,4.8c-2.1,0-3.4-1-3.4-2.3
	c0-1.1,0.9-2,2.3-2h1.5c1,0,2-0.1,2-1.2c0-1-1.1-1.1-2.1-1.1h-1.4c-1.5,0-2.2-1-2.2-2s0.8-2,2.2-2h1.4c1,0,2.1-0.1,2.1-1.1
	c0-1.2-1-1.2-2-1.2h-1.5c-1.4,0-2.2-0.8-2.2-2.1c0-1.3,1.3-2.3,3.4-2.3C122.8,415.9,126.2,417.1,126.2,421z M129,409.7
	c0,1.8-1.4,3-3,3s-3-1.2-3-3s1.4-3,3-3S129,407.9,129,409.7z"/>
<path class="st0" d="M143.1,403.4v3c1.5-2.1,3.8-3.6,7.2-3.6c4.3,0,9.3,3.6,9.3,11.3c0,8.1-4.8,12-9.8,12c-2.6,0-5-1-6.8-3.5v10.6
	h-5.4v-29.8H143.1z M143.1,414.4c0,4.5,2.6,6.9,5.5,6.9c2.8,0,5.6-2.2,5.6-6.9c0-4.6-2.8-6.8-5.6-6.8
	C145.7,407.6,143.1,409.7,143.1,414.4z"/>
<path class="st0" d="M169.1,403.4v3c1.5-2.1,3.8-3.6,7.2-3.6c4.3,0,9.3,3.6,9.3,11.3c0,8.1-4.8,12-9.8,12c-2.6,0-5-1-6.8-3.5v10.6
	h-5.4v-29.8H169.1z M169.1,414.4c0,4.5,2.6,6.9,5.5,6.9c2.8,0,5.6-2.2,5.6-6.9c0-4.6-2.8-6.8-5.6-6.8
	C171.7,407.6,169.1,409.7,169.1,414.4z"/>
<path class="st0" d="M197.1,402.8c4.5,0,7.7,2.1,9.1,7.3l-4.9,0.8c-0.1-2.6-1.7-3.5-4.1-3.5c-1.8,0-3.2,0.8-3.2,2.1
	c0,1,0.7,2,2.8,2.4l3.7,0.7c3.6,0.7,5.6,3.1,5.6,6.3c0,4.8-4.3,7.2-8.4,7.2c-4.3,0-9.1-2.2-9.8-7.6l4.9-0.8c0.3,2.8,2,3.8,4.8,3.8
	c2.1,0,3.5-0.8,3.5-2.1c0-1.2-0.7-2.1-3-2.5l-3.4-0.6c-3.6-0.7-5.8-3.2-5.8-6.4C189,404.9,193.5,402.8,197.1,402.8z"/>
<g>
	<path class="st0" d="M275.4,127.2l5.1,14.9l5.1-14.9h5.9l-8.8,22.1h-4.4l-8.8-22.1C269.5,127.2,275.4,127.2,275.4,127.2z"/>
	<path class="st0" d="M306.3,144.2c2.1,0,3.6-0.4,4.5-0.9c1.6-0.8,3-0.7,3.6,0.4c0.7,1.1,0.3,2.6-1.6,3.6c-1.7,0.8-3,1.3-6.6,1.3
		c-4.9,0-9.9-1.4-12.9-4.3c-1.2-1.1-1.3-2.5-0.5-3.5c0.9-0.9,2.4-0.8,3.7,0.3C298.4,142.8,302.6,144.2,306.3,144.2z M311.6,133.5
		c0,1.8-1.4,3-3,3s-3-1.2-3-3s1.4-3,3-3S311.6,131.8,311.6,133.5z"/>
	<path class="st0" d="M325.8,127.2v3c1.5-2.1,3.8-3.6,7.2-3.6c4.3,0,9.3,3.6,9.3,11.3c0,8.1-4.8,12-9.8,12c-2.6,0-5-1-6.8-3.5V157
		h-5.4v-29.8H325.8z M325.8,138.2c0,4.5,2.6,6.9,5.5,6.9c2.8,0,5.6-2.2,5.6-6.9c0-4.6-2.8-6.8-5.6-6.8
		C328.4,131.4,325.8,133.5,325.8,138.2z"/>
	<path class="st0" d="M351.7,127.2v3c1.5-2.1,3.8-3.6,7.2-3.6c4.3,0,9.3,3.6,9.3,11.3c0,8.1-4.8,12-9.8,12c-2.6,0-5-1-6.8-3.5V157
		h-5.4v-29.8H351.7z M351.7,138.2c0,4.5,2.6,6.9,5.5,6.9c2.8,0,5.6-2.2,5.6-6.9c0-4.6-2.8-6.8-5.6-6.8
		C354.3,131.4,351.7,133.5,351.7,138.2z"/>
	<path class="st0" d="M379.7,126.6c4.5,0,7.7,2.1,9.1,7.3l-4.9,0.8c-0.1-2.6-1.7-3.5-4.1-3.5c-1.8,0-3.2,0.8-3.2,2.1
		c0,1,0.7,2,2.8,2.4l3.7,0.7c3.6,0.7,5.6,3.1,5.6,6.3c0,4.8-4.3,7.2-8.4,7.2c-4.3,0-9.1-2.2-9.8-7.6l4.9-0.8c0.3,2.8,2,3.8,4.8,3.8
		c2.1,0,3.5-0.8,3.5-2.1c0-1.2-0.7-2.1-3-2.5l-3.4-0.6c-3.6-0.7-5.8-3.2-5.8-6.4C371.6,128.7,376.1,126.6,379.7,126.6z"/>
	<path class="st0" d="M275.4,173.2l5.1,14.9l5.1-14.9h5.9l-8.8,22.1h-4.4l-8.8-22.1H275.4z"/>
	<path class="st0" d="M304.7,191.1c3.7,0,5.7-1.1,7.7-3.5c1.2-1.5,2.6-1.8,3.6-1.1c1.1,0.9,1,2.4-0.1,3.8c-1.5,1.8-3,3.1-4.9,4
		c-1.2,5.7-4.9,8.4-9.2,8.4c-4.6,0-7.3-3.2-7.3-6.5c0-1.2,0.3-2.4,0.9-3.8c-1.2-1-2.4-2.2-3.4-3.8c-0.9-1.4-0.7-2.7,0.3-3.5
		c1-0.7,2.4-0.4,3.4,1C298,189.4,300.9,191.1,304.7,191.1z M302.2,198.6c2.1,0,3.6-1.3,4.2-3.3c-0.5,0-1.2,0.1-1.8,0.1
		c-2,0-3.9-0.3-5.6-0.9c-0.2,0.5-0.3,0.9-0.3,1.4C298.8,197.5,299.9,198.6,302.2,198.6z M311.6,179.6c0,1.8-1.4,3-3,3s-3-1.2-3-3
		s1.4-3,3-3S311.6,177.8,311.6,179.6z"/>
	<path class="st0" d="M325.8,173.3v3c1.5-2.1,3.8-3.6,7.2-3.6c4.3,0,9.3,3.6,9.3,11.3c0,8.1-4.8,12-9.8,12c-2.6,0-5-1-6.8-3.5V203
		h-5.4v-29.8h5.5V173.3z M325.8,184.2c0,4.5,2.6,6.9,5.5,6.9c2.8,0,5.6-2.2,5.6-6.9c0-4.6-2.8-6.8-5.6-6.8
		C328.4,177.4,325.8,179.5,325.8,184.2z"/>
	<path class="st0" d="M351.7,173.3v3c1.5-2.1,3.8-3.6,7.2-3.6c4.3,0,9.3,3.6,9.3,11.3c0,8.1-4.8,12-9.8,12c-2.6,0-5-1-6.8-3.5V203
		h-5.4v-29.8h5.5V173.3z M351.7,184.2c0,4.5,2.6,6.9,5.5,6.9c2.8,0,5.6-2.2,5.6-6.9c0-4.6-2.8-6.8-5.6-6.8
		C354.3,177.4,351.7,179.5,351.7,184.2z"/>
	<path class="st0" d="M379.7,172.7c4.5,0,7.7,2.1,9.1,7.3l-4.9,0.8c-0.1-2.6-1.7-3.5-4.1-3.5c-1.8,0-3.2,0.8-3.2,2.1
		c0,1,0.7,2,2.8,2.4l3.7,0.7c3.6,0.7,5.6,3.1,5.6,6.3c0,4.8-4.3,7.2-8.4,7.2c-4.3,0-9.1-2.2-9.8-7.6l4.9-0.8c0.3,2.8,2,3.8,4.8,3.8
		c2.1,0,3.5-0.8,3.5-2.1c0-1.2-0.7-2.1-3-2.5l-3.4-0.6c-3.6-0.7-5.8-3.2-5.8-6.4C371.6,174.7,376.1,172.7,379.7,172.7z"/>
	<path class="st0" d="M275.4,219.3l5.1,14.9l5.1-14.9h5.9l-8.8,22.1h-4.4l-8.8-22.1H275.4z"/>
	<path class="st0" d="M313.2,233.9c1.8,0,2.6,1,2.6,2.2s-0.8,2.2-2.6,2.2h-4.3v3.2c0,2.9-2,6.7-6.7,6.7s-6.7-3.8-6.7-6.7v-3.2H294
		c-1.8,0-2.6-1-2.6-2.2s0.8-2.2,2.6-2.2H313.2z M302.2,243.9c1.6,0,2.3-1.1,2.3-2.3v-3.2H300v3.2C300,242.8,300.6,243.9,302.2,243.9
		z M311.6,225.6c0,1.8-1.4,3-3,3s-3-1.2-3-3s1.4-3,3-3S311.6,223.8,311.6,225.6z"/>
	<path class="st0" d="M325.8,219.3v3c1.5-2.1,3.8-3.6,7.2-3.6c4.3,0,9.3,3.6,9.3,11.3c0,8.1-4.8,12-9.8,12c-2.6,0-5-1-6.8-3.5v10.6
		h-5.4v-29.8H325.8z M325.8,230.3c0,4.5,2.6,6.9,5.5,6.9c2.8,0,5.6-2.2,5.6-6.9c0-4.6-2.8-6.8-5.6-6.8
		C328.4,223.4,325.8,225.5,325.8,230.3z"/>
	<path class="st0" d="M351.7,219.3v3c1.5-2.1,3.8-3.6,7.2-3.6c4.3,0,9.3,3.6,9.3,11.3c0,8.1-4.8,12-9.8,12c-2.6,0-5-1-6.8-3.5v10.6
		h-5.4v-29.8H351.7z M351.7,230.3c0,4.5,2.6,6.9,5.5,6.9c2.8,0,5.6-2.2,5.6-6.9c0-4.6-2.8-6.8-5.6-6.8
		C354.3,223.4,351.7,225.5,351.7,230.3z"/>
	<path class="st0" d="M379.7,218.7c4.5,0,7.7,2.1,9.1,7.3l-4.9,0.8c-0.1-2.6-1.7-3.5-4.1-3.5c-1.8,0-3.2,0.8-3.2,2.1
		c0,1,0.7,2,2.8,2.4l3.7,0.7c3.6,0.7,5.6,3.1,5.6,6.3c0,4.8-4.3,7.2-8.4,7.2c-4.3,0-9.1-2.2-9.8-7.6l4.9-0.8c0.3,2.8,2,3.8,4.8,3.8
		c2.1,0,3.5-0.8,3.5-2.1c0-1.2-0.7-2.1-3-2.5l-3.4-0.6c-3.6-0.7-5.8-3.2-5.8-6.4C371.6,220.8,376.1,218.7,379.7,218.7z"/>
	<path class="st0" d="M275.4,265.3l5.1,14.9l5.1-14.9h5.9l-8.8,22.1h-4.4l-8.8-22.1H275.4z"/>
	<path class="st0" d="M313.4,282.4c1.7,0.5,2.2,1.6,1.9,2.8c-0.3,1.1-1.4,2-3.1,1.5l-17.1-4.3c-1.7-0.5-2.2-1.7-1.9-2.9
		c0.3-1.1,1.4-1.9,3.1-1.5L313.4,282.4z M311.6,271.6c0,1.8-1.4,3-3,3s-3-1.2-3-3s1.4-3,3-3S311.6,269.8,311.6,271.6z"/>
	<path class="st0" d="M325.8,265.3v3c1.5-2.1,3.8-3.6,7.2-3.6c4.3,0,9.3,3.6,9.3,11.3c0,8.1-4.8,12-9.8,12c-2.6,0-5-1-6.8-3.5v10.6
		h-5.4v-29.8H325.8z M325.8,276.3c0,4.5,2.6,6.9,5.5,6.9c2.8,0,5.6-2.2,5.6-6.9c0-4.6-2.8-6.8-5.6-6.8
		C328.4,269.5,325.8,271.6,325.8,276.3z"/>
	<path class="st0" d="M351.7,265.3v3c1.5-2.1,3.8-3.6,7.2-3.6c4.3,0,9.3,3.6,9.3,11.3c0,8.1-4.8,12-9.8,12c-2.6,0-5-1-6.8-3.5v10.6
		h-5.4v-29.8H351.7z M351.7,276.3c0,4.5,2.6,6.9,5.5,6.9c2.8,0,5.6-2.2,5.6-6.9c0-4.6-2.8-6.8-5.6-6.8
		C354.3,269.5,351.7,271.6,351.7,276.3z"/>
	<path class="st0" d="M379.7,264.7c4.5,0,7.7,2.1,9.1,7.3l-4.9,0.8c-0.1-2.6-1.7-3.5-4.1-3.5c-1.8,0-3.2,0.8-3.2,2.1
		c0,1,0.7,2,2.8,2.4l3.7,0.7c3.6,0.7,5.6,3.1,5.6,6.3c0,4.8-4.3,7.2-8.4,7.2c-4.3,0-9.1-2.2-9.8-7.6l4.9-0.8c0.3,2.8,2,3.8,4.8,3.8
		c2.1,0,3.5-0.8,3.5-2.1c0-1.2-0.7-2.1-3-2.5l-3.4-0.6c-3.6-0.7-5.8-3.2-5.8-6.4C371.6,266.8,376.1,264.7,379.7,264.7z"/>
	<path class="st0" d="M275.4,311.3l5.1,14.9l5.1-14.9h5.9l-8.8,22.1h-4.4l-8.8-22.1H275.4z"/>
	<path class="st0" d="M313.1,326c1.7,0,2.5,1.1,2.5,2.3v1.6c0,4.9-4.9,10-12,10s-12-5.1-12-10v-1.6c0-1.2,0.8-2.3,2.5-2.3H313.1z
		 M303.6,335.5c5.4,0,7.6-2.6,7.6-5.2v-0.1H296v0.1C296,332.9,298.2,335.5,303.6,335.5z M311.6,317.6c0,1.8-1.4,3-3,3s-3-1.2-3-3
		s1.4-3,3-3S311.6,315.9,311.6,317.6z"/>
	<path class="st0" d="M325.8,311.4v3c1.5-2.1,3.8-3.6,7.2-3.6c4.3,0,9.3,3.6,9.3,11.3c0,8.1-4.8,12-9.8,12c-2.6,0-5-1-6.8-3.5v10.6
		h-5.4v-29.8H325.8z M325.8,322.3c0,4.5,2.6,6.9,5.5,6.9c2.8,0,5.6-2.2,5.6-6.9c0-4.6-2.8-6.8-5.6-6.8
		C328.4,315.5,325.8,317.6,325.8,322.3z"/>
	<path class="st0" d="M351.7,311.4v3c1.5-2.1,3.8-3.6,7.2-3.6c4.3,0,9.3,3.6,9.3,11.3c0,8.1-4.8,12-9.8,12c-2.6,0-5-1-6.8-3.5v10.6
		h-5.4v-29.8H351.7z M351.7,322.3c0,4.5,2.6,6.9,5.5,6.9c2.8,0,5.6-2.2,5.6-6.9c0-4.6-2.8-6.8-5.6-6.8
		C354.3,315.5,351.7,317.6,351.7,322.3z"/>
	<path class="st0" d="M379.7,310.7c4.5,0,7.7,2.1,9.1,7.3l-4.9,0.8c-0.1-2.6-1.7-3.5-4.1-3.5c-1.8,0-3.2,0.8-3.2,2.1
		c0,1,0.7,2,2.8,2.4l3.7,0.7c3.6,0.7,5.6,3.1,5.6,6.3c0,4.8-4.3,7.2-8.4,7.2c-4.3,0-9.1-2.2-9.8-7.6l4.9-0.8c0.3,2.8,2,3.8,4.8,3.8
		c2.1,0,3.5-0.8,3.5-2.1c0-1.2-0.7-2.1-3-2.5l-3.4-0.6c-3.6-0.7-5.8-3.2-5.8-6.4C371.6,312.8,376.1,310.7,379.7,310.7z"/>
	<path class="st0" d="M275.4,357.3l5.1,14.9l5.1-14.9h5.9l-8.8,22.1h-4.4l-8.8-22.1H275.4z"/>
	<path class="st0" d="M304.3,375.9l7.1-3.4c1.5-0.7,2.7-0.2,3.2,0.9s0.2,2.3-1.3,3l-4,1.9l3.9,1.9c1.6,0.8,1.9,2.1,1.4,3.1
		s-1.7,1.5-3.1,0.8l-7.1-3.4l-7,3.4c-1.6,0.8-2.8,0.2-3.2-0.8c-0.5-1.1-0.2-2.3,1.4-3.1l3.9-1.9l-4-1.9c-1.5-0.7-1.8-1.9-1.3-3
		c0.5-1,1.7-1.6,3.2-0.8L304.3,375.9z M311.6,363.7c0,1.8-1.4,3-3,3s-3-1.2-3-3s1.4-3,3-3S311.6,361.9,311.6,363.7z"/>
	<path class="st0" d="M325.8,357.4v3c1.5-2.1,3.8-3.6,7.2-3.6c4.3,0,9.3,3.6,9.3,11.3c0,8.1-4.8,12-9.8,12c-2.6,0-5-1-6.8-3.5v10.6
		h-5.4v-29.8H325.8z M325.8,368.4c0,4.5,2.6,6.9,5.5,6.9c2.8,0,5.6-2.2,5.6-6.9c0-4.6-2.8-6.8-5.6-6.8
		C328.4,361.5,325.8,363.6,325.8,368.4z"/>
	<path class="st0" d="M351.7,357.4v3c1.5-2.1,3.8-3.6,7.2-3.6c4.3,0,9.3,3.6,9.3,11.3c0,8.1-4.8,12-9.8,12c-2.6,0-5-1-6.8-3.5v10.6
		h-5.4v-29.8H351.7z M351.7,368.4c0,4.5,2.6,6.9,5.5,6.9c2.8,0,5.6-2.2,5.6-6.9c0-4.6-2.8-6.8-5.6-6.8
		C354.3,361.5,351.7,363.6,351.7,368.4z"/>
	<path class="st0" d="M379.7,356.8c4.5,0,7.7,2.1,9.1,7.3l-4.9,0.8c-0.1-2.6-1.7-3.5-4.1-3.5c-1.8,0-3.2,0.8-3.2,2.1
		c0,1,0.7,2,2.8,2.4l3.7,0.7c3.6,0.7,5.6,3.1,5.6,6.3c0,4.8-4.3,7.2-8.4,7.2c-4.3,0-9.1-2.2-9.8-7.6l4.9-0.8c0.3,2.8,2,3.8,4.8,3.8
		c2.1,0,3.5-0.8,3.5-2.1c0-1.2-0.7-2.1-3-2.5l-3.4-0.6c-3.6-0.7-5.8-3.2-5.8-6.4C371.6,358.8,376.1,356.8,379.7,356.8z"/>
	<path class="st0" d="M275.4,403.4l5.1,14.9l5.1-14.9h5.9l-8.8,22.1h-4.4l-8.8-22.1H275.4z"/>
	<path class="st0" d="M305.1,419.6c3.3,0,5.5-0.7,7.4-1.6c1.5-0.8,3.1-0.6,3.7,0.5s0.1,2.6-1.4,3.4c-3.3,1.8-6,2.2-9.7,2.2
		c-3.3,0-8.6-0.9-12.2-3.8c-1.2-0.9-1.5-2.4-0.7-3.4s2.3-1,3.6,0C298.2,418.6,302.4,419.6,305.1,419.6z M311.6,409.7
		c0,1.8-1.4,3-3,3s-3-1.2-3-3s1.4-3,3-3S311.6,407.9,311.6,409.7z"/>
	<path class="st0" d="M325.8,403.4v3c1.5-2.1,3.8-3.6,7.2-3.6c4.3,0,9.3,3.6,9.3,11.3c0,8.1-4.8,12-9.8,12c-2.6,0-5-1-6.8-3.5v10.6
		h-5.4v-29.8H325.8z M325.8,414.4c0,4.5,2.6,6.9,5.5,6.9c2.8,0,5.6-2.2,5.6-6.9c0-4.6-2.8-6.8-5.6-6.8
		C328.4,407.6,325.8,409.7,325.8,414.4z"/>
	<path class="st0" d="M351.7,403.4v3c1.5-2.1,3.8-3.6,7.2-3.6c4.3,0,9.3,3.6,9.3,11.3c0,8.1-4.8,12-9.8,12c-2.6,0-5-1-6.8-3.5v10.6
		h-5.4v-29.8H351.7z M351.7,414.4c0,4.5,2.6,6.9,5.5,6.9c2.8,0,5.6-2.2,5.6-6.9c0-4.6-2.8-6.8-5.6-6.8
		C354.3,407.6,351.7,409.7,351.7,414.4z"/>
	<path class="st0" d="M379.7,402.8c4.5,0,7.7,2.1,9.1,7.3l-4.9,0.8c-0.1-2.6-1.7-3.5-4.1-3.5c-1.8,0-3.2,0.8-3.2,2.1
		c0,1,0.7,2,2.8,2.4l3.7,0.7c3.6,0.7,5.6,3.1,5.6,6.3c0,4.8-4.3,7.2-8.4,7.2c-4.3,0-9.1-2.2-9.8-7.6l4.9-0.8c0.3,2.8,2,3.8,4.8,3.8
		c2.1,0,3.5-0.8,3.5-2.1c0-1.2-0.7-2.1-3-2.5l-3.4-0.6c-3.6-0.7-5.8-3.2-5.8-6.4C371.6,404.9,376.1,402.8,379.7,402.8z"/>
	<path class="st0" d="M275.4,449.4l5.1,14.9l5.1-14.9h5.9l-8.8,22.1h-4.4l-8.8-22.1H275.4z"/>
	<path class="st0" d="M298.8,462.9c5.6,0,6,5.1,9.3,5.1c1.7,0,2.2-1.6,2.4-2.7c0.2-1.3,1.3-2.1,2.5-2c1.3,0.2,1.9,1.5,1.7,2.7
		c-0.5,3.5-2.7,6.4-6.6,6.4c-5.6,0-6-5.1-9.3-5.1c-1.7,0-2.1,1.6-2.4,2.7c-0.3,1.3-1.3,2.1-2.5,2c-1.3-0.2-1.9-1.5-1.7-2.7
		C292.7,465.9,294.9,462.9,298.8,462.9z M311.6,455.7c0,1.8-1.4,3-3,3s-3-1.2-3-3s1.4-3,3-3S311.6,454,311.6,455.7z"/>
	<path class="st0" d="M325.8,449.4v3c1.5-2.1,3.8-3.6,7.2-3.6c4.3,0,9.3,3.6,9.3,11.3c0,8.1-4.8,12-9.8,12c-2.6,0-5-1-6.8-3.5v10.6
		h-5.4v-29.8H325.8z M325.8,460.4c0,4.5,2.6,6.9,5.5,6.9c2.8,0,5.6-2.2,5.6-6.9c0-4.6-2.8-6.8-5.6-6.8
		C328.4,453.6,325.8,455.7,325.8,460.4z"/>
	<path class="st0" d="M351.7,449.4v3c1.5-2.1,3.8-3.6,7.2-3.6c4.3,0,9.3,3.6,9.3,11.3c0,8.1-4.8,12-9.8,12c-2.6,0-5-1-6.8-3.5v10.6
		h-5.4v-29.8H351.7z M351.7,460.4c0,4.5,2.6,6.9,5.5,6.9c2.8,0,5.6-2.2,5.6-6.9c0-4.6-2.8-6.8-5.6-6.8
		C354.3,453.6,351.7,455.7,351.7,460.4z"/>
	<path class="st0" d="M379.7,448.8c4.5,0,7.7,2.1,9.1,7.3l-4.9,0.8c-0.1-2.6-1.7-3.5-4.1-3.5c-1.8,0-3.2,0.8-3.2,2.1
		c0,1,0.7,2,2.8,2.4l3.7,0.7c3.6,0.7,5.6,3.1,5.6,6.3c0,4.8-4.3,7.2-8.4,7.2c-4.3,0-9.1-2.2-9.8-7.6l4.9-0.8c0.3,2.8,2,3.8,4.8,3.8
		c2.1,0,3.5-0.8,3.5-2.1c0-1.2-0.7-2.1-3-2.5l-3.4-0.6c-3.6-0.7-5.8-3.2-5.8-6.4C371.6,450.9,376.1,448.8,379.7,448.8z"/>
</g>
<g>
	<g>
		<path class="st1" d="M458.1,127.2l5.1,14.9l5.1-14.9h5.9l-8.8,22.1H461l-8.8-22.1C452.2,127.2,458.1,127.2,458.1,127.2z"/>
		<path class="st1" d="M487.4,145.8c3.7,0,5.8-1.8,7.8-4.4c1.1-1.4,2.5-1.7,3.5-0.9s1.1,2.3,0,3.7c-2.9,3.8-6.6,6.1-11.3,6.1
			c-5.1,0-9.6-2.8-12.7-7.7c-0.9-1.3-0.7-2.7,0.3-3.4s2.5-0.4,3.4,1C480.6,143.5,483.6,145.8,487.4,145.8z M494.3,133.5
			c0,1.8-1.4,3-3,3s-3-1.2-3-3s1.4-3,3-3S494.3,131.8,494.3,133.5z"/>
		<path class="st1" d="M508.4,127.2v3c1.5-2.1,3.8-3.6,7.2-3.6c4.3,0,9.3,3.6,9.3,11.3c0,8.1-4.8,12-9.8,12c-2.6,0-5-1-6.8-3.5V157
			H503v-29.8H508.4z M508.4,138.2c0,4.5,2.6,6.9,5.5,6.9c2.8,0,5.6-2.2,5.6-6.9c0-4.6-2.8-6.8-5.6-6.8
			C511,131.4,508.4,133.5,508.4,138.2z"/>
		<path class="st1" d="M534.4,127.2v3c1.5-2.1,3.8-3.6,7.2-3.6c4.3,0,9.3,3.6,9.3,11.3c0,8.1-4.8,12-9.8,12c-2.6,0-5-1-6.8-3.5V157
			H529v-29.8H534.4z M534.4,138.2c0,4.5,2.6,6.9,5.5,6.9c2.8,0,5.6-2.2,5.6-6.9c0-4.6-2.8-6.8-5.6-6.8
			C537,131.4,534.4,133.5,534.4,138.2z"/>
		<path class="st1" d="M562.4,126.6c4.4,0,7.7,2.1,9.1,7.3l-4.9,0.8c-0.1-2.6-1.7-3.5-4.1-3.5c-1.8,0-3.2,0.8-3.2,2.1
			c0,1,0.7,2,2.8,2.4l3.7,0.7c3.6,0.7,5.6,3.1,5.6,6.3c0,4.8-4.3,7.2-8.4,7.2c-4.3,0-9.1-2.2-9.8-7.6l4.9-0.8c0.3,2.8,2,3.8,4.8,3.8
			c2.1,0,3.5-0.8,3.5-2.1c0-1.2-0.7-2.1-3-2.5l-3.4-0.6c-3.6-0.7-5.8-3.2-5.8-6.4C554.2,128.7,558.8,126.6,562.4,126.6z"/>
		<path class="st1" d="M458.1,173.2l5.1,14.9l5.1-14.9h5.9l-8.8,22.1H461l-8.8-22.1H458.1z"/>
		<path class="st1" d="M486.2,190.8c-3.7,0-5.8,1.8-7.8,4.4c-1.1,1.4-2.5,1.6-3.5,0.9c-1-0.8-1.1-2.3,0-3.7
			c2.9-3.8,6.6-6.1,11.3-6.1c5.1,0,9.6,2.8,12.7,7.7c0.9,1.3,0.7,2.8-0.3,3.5s-2.5,0.4-3.4-1C493,193.1,490,190.8,486.2,190.8z
			 M494.3,179.6c0,1.8-1.4,3-3,3s-3-1.2-3-3s1.4-3,3-3S494.3,177.8,494.3,179.6z"/>
		<path class="st1" d="M508.4,173.3v3c1.5-2.1,3.8-3.6,7.2-3.6c4.3,0,9.3,3.6,9.3,11.3c0,8.1-4.8,12-9.8,12c-2.6,0-5-1-6.8-3.5V203
			H503v-29.8h5.4V173.3z M508.4,184.2c0,4.5,2.6,6.9,5.5,6.9c2.8,0,5.6-2.2,5.6-6.9c0-4.6-2.8-6.8-5.6-6.8
			C511,177.4,508.4,179.5,508.4,184.2z"/>
		<path class="st1" d="M534.4,173.3v3c1.5-2.1,3.8-3.6,7.2-3.6c4.3,0,9.3,3.6,9.3,11.3c0,8.1-4.8,12-9.8,12c-2.6,0-5-1-6.8-3.5V203
			H529v-29.8h5.4V173.3z M534.4,184.2c0,4.5,2.6,6.9,5.5,6.9c2.8,0,5.6-2.2,5.6-6.9c0-4.6-2.8-6.8-5.6-6.8
			C537,177.4,534.4,179.5,534.4,184.2z"/>
		<path class="st1" d="M562.4,172.7c4.4,0,7.7,2.1,9.1,7.3l-4.9,0.8c-0.1-2.6-1.7-3.5-4.1-3.5c-1.8,0-3.2,0.8-3.2,2.1
			c0,1,0.7,2,2.8,2.4l3.7,0.7c3.6,0.7,5.6,3.1,5.6,6.3c0,4.8-4.3,7.2-8.4,7.2c-4.3,0-9.1-2.2-9.8-7.6l4.9-0.8c0.3,2.8,2,3.8,4.8,3.8
			c2.1,0,3.5-0.8,3.5-2.1c0-1.2-0.7-2.1-3-2.5l-3.4-0.6c-3.6-0.7-5.8-3.2-5.8-6.4C554.2,174.7,558.8,172.7,562.4,172.7z"/>
		<path class="st1" d="M458.1,219.3l5.1,14.9l5.1-14.9h5.9l-8.8,22.1H461l-8.8-22.1H458.1z"/>
		<path class="st1" d="M495,240.1c0,4.4-3.6,8-8,8s-8-3.6-8-8s3.6-8,8-8S495,235.7,495,240.1z M483.4,240.1c0,2.1,1.6,3.6,3.6,3.6
			s3.6-1.6,3.6-3.6s-1.6-3.6-3.6-3.6C485.1,236.5,483.4,238,483.4,240.1z M494.3,225.6c0,1.8-1.4,3-3,3s-3-1.2-3-3s1.4-3,3-3
			S494.3,223.8,494.3,225.6z"/>
		<path class="st1" d="M508.4,219.3v3c1.5-2.1,3.8-3.6,7.2-3.6c4.3,0,9.3,3.6,9.3,11.3c0,8.1-4.8,12-9.8,12c-2.6,0-5-1-6.8-3.5v10.6
			H503v-29.8H508.4z M508.4,230.3c0,4.5,2.6,6.9,5.5,6.9c2.8,0,5.6-2.2,5.6-6.9c0-4.6-2.8-6.8-5.6-6.8
			C511,223.4,508.4,225.5,508.4,230.3z"/>
		<path class="st1" d="M534.4,219.3v3c1.5-2.1,3.8-3.6,7.2-3.6c4.3,0,9.3,3.6,9.3,11.3c0,8.1-4.8,12-9.8,12c-2.6,0-5-1-6.8-3.5v10.6
			H529v-29.8H534.4z M534.4,230.3c0,4.5,2.6,6.9,5.5,6.9c2.8,0,5.6-2.2,5.6-6.9c0-4.6-2.8-6.8-5.6-6.8
			C537,223.4,534.4,225.5,534.4,230.3z"/>
		<path class="st1" d="M562.4,218.7c4.4,0,7.7,2.1,9.1,7.3l-4.9,0.8c-0.1-2.6-1.7-3.5-4.1-3.5c-1.8,0-3.2,0.8-3.2,2.1
			c0,1,0.7,2,2.8,2.4l3.7,0.7c3.6,0.7,5.6,3.1,5.6,6.3c0,4.8-4.3,7.2-8.4,7.2c-4.3,0-9.1-2.2-9.8-7.6l4.9-0.8c0.3,2.8,2,3.8,4.8,3.8
			c2.1,0,3.5-0.8,3.5-2.1c0-1.2-0.7-2.1-3-2.5l-3.4-0.6c-3.6-0.7-5.8-3.2-5.8-6.4C554.2,220.8,558.8,218.7,562.4,218.7z"/>
		<path class="st1" d="M458.1,265.3l5.1,14.9l5.1-14.9h5.9l-8.8,22.1H461l-8.8-22.1H458.1z"/>
		<path class="st1" d="M495.8,280c1.8,0,2.6,1,2.6,2.2s-0.8,2.2-2.6,2.2h-19.1c-1.8,0-2.6-1-2.6-2.2s0.8-2.2,2.6-2.2H495.8z
			 M494.3,271.6c0,1.8-1.3,3-3,3s-3-1.2-3-3s1.3-3,3-3C492.9,268.6,494.3,269.8,494.3,271.6z"/>
		<path class="st1" d="M508.4,265.3v3c1.5-2.1,3.8-3.6,7.2-3.6c4.3,0,9.3,3.6,9.3,11.3c0,8.1-4.8,12-9.8,12c-2.6,0-5-1-6.8-3.5v10.6
			H503v-29.8H508.4z M508.4,276.3c0,4.5,2.6,6.9,5.5,6.9c2.8,0,5.6-2.2,5.6-6.9c0-4.6-2.8-6.8-5.6-6.8
			C511,269.5,508.4,271.6,508.4,276.3z"/>
		<path class="st1" d="M534.4,265.3v3c1.5-2.1,3.8-3.6,7.2-3.6c4.3,0,9.3,3.6,9.3,11.3c0,8.1-4.8,12-9.8,12c-2.6,0-5-1-6.8-3.5v10.6
			H529v-29.8H534.4z M534.4,276.3c0,4.5,2.6,6.9,5.5,6.9c2.8,0,5.6-2.2,5.6-6.9c0-4.6-2.8-6.8-5.6-6.8
			C537,269.5,534.4,271.6,534.4,276.3z"/>
		<path class="st1" d="M562.4,264.7c4.4,0,7.7,2.1,9.1,7.3l-4.9,0.8c-0.1-2.6-1.7-3.5-4.1-3.5c-1.8,0-3.2,0.8-3.2,2.1
			c0,1,0.7,2,2.8,2.4l3.7,0.7c3.6,0.7,5.6,3.1,5.6,6.3c0,4.8-4.3,7.2-8.4,7.2c-4.3,0-9.1-2.2-9.8-7.6l4.9-0.8c0.3,2.8,2,3.8,4.8,3.8
			c2.1,0,3.5-0.8,3.5-2.1c0-1.2-0.7-2.1-3-2.5l-3.4-0.6c-3.6-0.7-5.8-3.2-5.8-6.4C554.2,266.8,558.8,264.7,562.4,264.7z"/>
		<path class="st1" d="M458.1,311.3l5.1,14.9l5.1-14.9h5.9l-8.8,22.1H461l-8.8-22.1H458.1z"/>
		<path class="st1" d="M492.4,329.1c1.6-0.3,3,0.3,3.2,1.5c0.2,1.3-0.6,2.5-2.2,2.8c-7.5,1.6-13.5-1.9-16.7-9.9
			c-0.6-1.5-0.2-2.8,1-3.3c1.3-0.5,2.6,0.1,3.1,1.5C483.1,327.5,487.1,330.3,492.4,329.1z M494.3,317.6c0,1.8-1.4,3-3,3s-3-1.2-3-3
			s1.4-3,3-3S494.3,315.9,494.3,317.6z"/>
		<path class="st1" d="M508.4,311.4v3c1.5-2.1,3.8-3.6,7.2-3.6c4.3,0,9.3,3.6,9.3,11.3c0,8.1-4.8,12-9.8,12c-2.6,0-5-1-6.8-3.5v10.6
			H503v-29.8H508.4z M508.4,322.3c0,4.5,2.6,6.9,5.5,6.9c2.8,0,5.6-2.2,5.6-6.9c0-4.6-2.8-6.8-5.6-6.8
			C511,315.5,508.4,317.6,508.4,322.3z"/>
		<path class="st1" d="M534.4,311.4v3c1.5-2.1,3.8-3.6,7.2-3.6c4.3,0,9.3,3.6,9.3,11.3c0,8.1-4.8,12-9.8,12c-2.6,0-5-1-6.8-3.5v10.6
			H529v-29.8H534.4z M534.4,322.3c0,4.5,2.6,6.9,5.5,6.9c2.8,0,5.6-2.2,5.6-6.9c0-4.6-2.8-6.8-5.6-6.8
			C537,315.5,534.4,317.6,534.4,322.3z"/>
		<path class="st1" d="M562.4,310.7c4.4,0,7.7,2.1,9.1,7.3l-4.9,0.8c-0.1-2.6-1.7-3.5-4.1-3.5c-1.8,0-3.2,0.8-3.2,2.1
			c0,1,0.7,2,2.8,2.4l3.7,0.7c3.6,0.7,5.6,3.1,5.6,6.3c0,4.8-4.3,7.2-8.4,7.2c-4.3,0-9.1-2.2-9.8-7.6l4.9-0.8c0.3,2.8,2,3.8,4.8,3.8
			c2.1,0,3.5-0.8,3.5-2.1c0-1.2-0.7-2.1-3-2.5l-3.4-0.6c-3.6-0.7-5.8-3.2-5.8-6.4C554.2,312.8,558.8,310.7,562.4,310.7z"/>
		<path class="st1" d="M458.1,357.3l5.1,14.9l5.1-14.9h5.9l-8.8,22.1H461l-8.8-22.1H458.1z"/>
		<path class="st1" d="M474.9,369.3c1-0.7,2.5-0.4,3.4,1c2.3,3.4,5.3,5.7,9.1,5.7c3.7,0,5.8-1.8,7.8-4.4c1.1-1.4,2.5-1.7,3.5-0.9
			c1,0.8,1.1,2.3,0,3.7c-2.9,3.8-6.3,6.1-11.3,6.1c-5.1,0-9.6-2.8-12.7-7.7C473.7,371.4,474,370,474.9,369.3z M492.3,362.6
			c-0.3,0.1-0.3,0.4,0,0.5l2.5,0.3c1.5,0.2,2.1,1.3,1.9,2.4c-0.3,1.2-1.3,1.8-2.9,1.4l-5.6-1.4c-1.7-0.4-2.2-1.3-2.2-2.3
			c0-0.8,0.4-1.5,1.7-2.2l4.8-2.6c1.8-1,3.2-0.7,3.8,0.3c0.6,1.2,0,2.4-1.3,2.8L492.3,362.6z"/>
		<path class="st1" d="M508.4,357.4v3c1.5-2.1,3.8-3.6,7.2-3.6c4.3,0,9.3,3.6,9.3,11.3c0,8.1-4.8,12-9.8,12c-2.6,0-5-1-6.8-3.5v10.6
			H503v-29.8H508.4z M508.4,368.4c0,4.5,2.6,6.9,5.5,6.9c2.8,0,5.6-2.2,5.6-6.9c0-4.6-2.8-6.8-5.6-6.8
			C511,361.5,508.4,363.6,508.4,368.4z"/>
		<path class="st1" d="M534.4,357.4v3c1.5-2.1,3.8-3.6,7.2-3.6c4.3,0,9.3,3.6,9.3,11.3c0,8.1-4.8,12-9.8,12c-2.6,0-5-1-6.8-3.5v10.6
			H529v-29.8H534.4z M534.4,368.4c0,4.5,2.6,6.9,5.5,6.9c2.8,0,5.6-2.2,5.6-6.9c0-4.6-2.8-6.8-5.6-6.8
			C537,361.5,534.4,363.6,534.4,368.4z"/>
		<path class="st1" d="M562.4,356.8c4.4,0,7.7,2.1,9.1,7.3l-4.9,0.8c-0.1-2.6-1.7-3.5-4.1-3.5c-1.8,0-3.2,0.8-3.2,2.1
			c0,1,0.7,2,2.8,2.4l3.7,0.7c3.6,0.7,5.6,3.1,5.6,6.3c0,4.8-4.3,7.2-8.4,7.2c-4.3,0-9.1-2.2-9.8-7.6l4.9-0.8c0.3,2.8,2,3.8,4.8,3.8
			c2.1,0,3.5-0.8,3.5-2.1c0-1.2-0.7-2.1-3-2.5l-3.4-0.6c-3.6-0.7-5.8-3.2-5.8-6.4C554.2,358.8,558.8,356.8,562.4,356.8z"/>
		<path class="st1" d="M458.1,403.4l5.1,14.9l5.1-14.9h5.9l-8.8,22.1H461l-8.8-22.1H458.1z"/>
		<path class="st1" d="M491.5,421c0,1.3-0.6,2.5-2.2,3.6c1.6,1.1,2.2,2.4,2.2,3.9c0,3.3-3.3,4.8-6.5,4.8c-2.1,0-3.4-1-3.4-2.3
			c0-1.1,0.9-2,2.3-2h1.5c1,0,2-0.1,2-1.2c0-1-1.1-1.1-2.1-1.1H484c-1.5,0-2.2-1-2.2-2s0.8-2,2.2-2h1.4c1,0,2.1-0.1,2.1-1.1
			c0-1.2-1-1.2-2-1.2H484c-1.4,0-2.2-0.8-2.2-2.1c0-1.3,1.3-2.3,3.4-2.3C488.1,415.9,491.5,417.1,491.5,421z M494.3,409.7
			c0,1.8-1.4,3-3,3s-3-1.2-3-3s1.4-3,3-3S494.3,407.9,494.3,409.7z"/>
		<path class="st1" d="M508.4,403.4v3c1.5-2.1,3.8-3.6,7.2-3.6c4.3,0,9.3,3.6,9.3,11.3c0,8.1-4.8,12-9.8,12c-2.6,0-5-1-6.8-3.5v10.6
			H503v-29.8H508.4z M508.4,414.4c0,4.5,2.6,6.9,5.5,6.9c2.8,0,5.6-2.2,5.6-6.9c0-4.6-2.8-6.8-5.6-6.8
			C511,407.6,508.4,409.7,508.4,414.4z"/>
		<path class="st1" d="M534.4,403.4v3c1.5-2.1,3.8-3.6,7.2-3.6c4.3,0,9.3,3.6,9.3,11.3c0,8.1-4.8,12-9.8,12c-2.6,0-5-1-6.8-3.5v10.6
			H529v-29.8H534.4z M534.4,414.4c0,4.5,2.6,6.9,5.5,6.9c2.8,0,5.6-2.2,5.6-6.9c0-4.6-2.8-6.8-5.6-6.8
			C537,407.6,534.4,409.7,534.4,414.4z"/>
		<path class="st1" d="M562.4,402.8c4.4,0,7.7,2.1,9.1,7.3l-4.9,0.8c-0.1-2.6-1.7-3.5-4.1-3.5c-1.8,0-3.2,0.8-3.2,2.1
			c0,1,0.7,2,2.8,2.4l3.7,0.7c3.6,0.7,5.6,3.1,5.6,6.3c0,4.8-4.3,7.2-8.4,7.2c-4.3,0-9.1-2.2-9.8-7.6l4.9-0.8c0.3,2.8,2,3.8,4.8,3.8
			c2.1,0,3.5-0.8,3.5-2.1c0-1.2-0.7-2.1-3-2.5l-3.4-0.6c-3.6-0.7-5.8-3.2-5.8-6.4C554.2,404.9,558.8,402.8,562.4,402.8z"/>
		<path class="st1" d="M458.1,449.4l5.1,14.9l5.1-14.9h5.9l-8.8,22.1H461l-8.8-22.1H458.1z"/>
		<path class="st1" d="M489,466.4c2.1,0,3.6-0.4,4.5-0.9c1.6-0.8,3-0.7,3.6,0.4c0.7,1.1,0.3,2.6-1.6,3.6c-1.7,0.8-3,1.3-6.6,1.3
			c-4.9,0-9.9-1.4-12.9-4.3c-1.2-1.1-1.3-2.5-0.5-3.5c0.9-0.9,2.4-0.8,3.7,0.3C481.1,465,485.3,466.4,489,466.4z M494.3,455.7
			c0,1.8-1.4,3-3,3s-3-1.2-3-3s1.4-3,3-3S494.3,454,494.3,455.7z"/>
		<path class="st1" d="M508.4,449.4v3c1.5-2.1,3.8-3.6,7.2-3.6c4.3,0,9.3,3.6,9.3,11.3c0,8.1-4.8,12-9.8,12c-2.6,0-5-1-6.8-3.5v10.6
			H503v-29.8H508.4z M508.4,460.4c0,4.5,2.6,6.9,5.5,6.9c2.8,0,5.6-2.2,5.6-6.9c0-4.6-2.8-6.8-5.6-6.8
			C511,453.6,508.4,455.7,508.4,460.4z"/>
		<path class="st1" d="M534.4,449.4v3c1.5-2.1,3.8-3.6,7.2-3.6c4.3,0,9.3,3.6,9.3,11.3c0,8.1-4.8,12-9.8,12c-2.6,0-5-1-6.8-3.5v10.6
			H529v-29.8H534.4z M534.4,460.4c0,4.5,2.6,6.9,5.5,6.9c2.8,0,5.6-2.2,5.6-6.9c0-4.6-2.8-6.8-5.6-6.8
			C537,453.6,534.4,455.7,534.4,460.4z"/>
		<path class="st1" d="M562.4,448.8c4.4,0,7.7,2.1,9.1,7.3l-4.9,0.8c-0.1-2.6-1.7-3.5-4.1-3.5c-1.8,0-3.2,0.8-3.2,2.1
			c0,1,0.7,2,2.8,2.4l3.7,0.7c3.6,0.7,5.6,3.1,5.6,6.3c0,4.8-4.3,7.2-8.4,7.2c-4.3,0-9.1-2.2-9.8-7.6l4.9-0.8c0.3,2.8,2,3.8,4.8,3.8
			c2.1,0,3.5-0.8,3.5-2.1c0-1.2-0.7-2.1-3-2.5l-3.4-0.6c-3.6-0.7-5.8-3.2-5.8-6.4C554.2,450.9,558.8,448.8,562.4,448.8z"/>
	</g>
</g>
<g>
	<g>
		<path class="st1" d="M640.7,127.2l5.1,14.9l5.1-14.9h5.9l-8.8,22.1h-4.4l-8.8-22.1C634.8,127.2,640.7,127.2,640.7,127.2z"/>
		<path class="st1" d="M670,145c3.7,0,5.7-1.1,7.7-3.5c1.2-1.5,2.6-1.8,3.6-1.1c1.1,0.9,1,2.4-0.1,3.8c-1.5,1.8-3,3.1-4.9,4
			c-1.2,5.7-4.9,8.4-9.2,8.4c-4.6,0-7.3-3.2-7.3-6.5c0-1.2,0.3-2.4,0.9-3.8c-1.2-1-2.4-2.2-3.4-3.8c-0.9-1.4-0.7-2.7,0.3-3.5
			c1-0.7,2.4-0.4,3.4,1C663.3,143.4,666.2,145,670,145z M667.5,152.6c2.1,0,3.6-1.3,4.2-3.3c-0.5,0-1.2,0.1-1.8,0.1
			c-2,0-3.9-0.3-5.6-0.9c-0.2,0.5-0.3,0.9-0.3,1.4C664.1,151.4,665.2,152.6,667.5,152.6z M676.9,133.5c0,1.8-1.4,3-3,3s-3-1.2-3-3
			s1.4-3,3-3S676.9,131.8,676.9,133.5z"/>
		<path class="st1" d="M691.1,127.2v3c1.5-2.1,3.8-3.6,7.2-3.6c4.3,0,9.3,3.6,9.3,11.3c0,8.1-4.8,12-9.8,12c-2.6,0-5-1-6.8-3.5V157
			h-5.4v-29.8H691.1z M691.1,138.2c0,4.5,2.6,6.9,5.5,6.9c2.8,0,5.6-2.2,5.6-6.9c0-4.6-2.8-6.8-5.6-6.8
			C693.7,131.4,691.1,133.5,691.1,138.2z"/>
		<path class="st1" d="M717,127.2v3c1.5-2.1,3.8-3.6,7.2-3.6c4.3,0,9.3,3.6,9.3,11.3c0,8.1-4.8,12-9.8,12c-2.6,0-5-1-6.8-3.5V157
			h-5.4v-29.8H717z M717,138.2c0,4.5,2.6,6.9,5.5,6.9c2.8,0,5.6-2.2,5.6-6.9c0-4.6-2.8-6.8-5.6-6.8C719.6,131.4,717,133.5,717,138.2
			z"/>
		<path class="st1" d="M745,126.6c4.4,0,7.7,2.1,9.1,7.3l-4.9,0.8c-0.1-2.6-1.7-3.5-4.1-3.5c-1.8,0-3.2,0.8-3.2,2.1
			c0,1,0.7,2,2.8,2.4l3.7,0.7c3.6,0.7,5.6,3.1,5.6,6.3c0,4.8-4.3,7.2-8.4,7.2c-4.3,0-9.1-2.2-9.8-7.6l4.9-0.8c0.3,2.8,2,3.8,4.8,3.8
			c2.1,0,3.5-0.8,3.5-2.1c0-1.2-0.7-2.1-3-2.5l-3.4-0.6c-3.6-0.7-5.8-3.2-5.8-6.4C736.9,128.7,741.4,126.6,745,126.6z"/>
		<path class="st1" d="M640.7,173.2l5.1,14.9l5.1-14.9h5.9l-8.8,22.1h-4.4l-8.8-22.1H640.7z"/>
		<path class="st1" d="M678.4,187.9c1.8,0,2.6,1,2.6,2.2s-0.8,2.2-2.6,2.2h-4.3v3.2c0,2.9-2,6.7-6.7,6.7s-6.7-3.8-6.7-6.7v-3.2h-1.5
			c-1.8,0-2.6-1-2.6-2.2s0.8-2.2,2.6-2.2H678.4z M667.5,197.9c1.6,0,2.3-1.1,2.3-2.3v-3.2h-4.5v3.2
			C665.2,196.8,665.9,197.9,667.5,197.9z M676.9,179.6c0,1.8-1.4,3-3,3s-3-1.2-3-3s1.4-3,3-3S676.9,177.8,676.9,179.6z"/>
		<path class="st1" d="M691.1,173.3v3c1.5-2.1,3.8-3.6,7.2-3.6c4.3,0,9.3,3.6,9.3,11.3c0,8.1-4.8,12-9.8,12c-2.6,0-5-1-6.8-3.5V203
			h-5.4v-29.8h5.5V173.3z M691.1,184.2c0,4.5,2.6,6.9,5.5,6.9c2.8,0,5.6-2.2,5.6-6.9c0-4.6-2.8-6.8-5.6-6.8
			C693.7,177.4,691.1,179.5,691.1,184.2z"/>
		<path class="st1" d="M717,173.3v3c1.5-2.1,3.8-3.6,7.2-3.6c4.3,0,9.3,3.6,9.3,11.3c0,8.1-4.8,12-9.8,12c-2.6,0-5-1-6.8-3.5V203
			h-5.4v-29.8h5.5V173.3z M717,184.2c0,4.5,2.6,6.9,5.5,6.9c2.8,0,5.6-2.2,5.6-6.9c0-4.6-2.8-6.8-5.6-6.8
			C719.6,177.4,717,179.5,717,184.2z"/>
		<path class="st1" d="M745,172.7c4.4,0,7.7,2.1,9.1,7.3l-4.9,0.8c-0.1-2.6-1.7-3.5-4.1-3.5c-1.8,0-3.2,0.8-3.2,2.1
			c0,1,0.7,2,2.8,2.4l3.7,0.7c3.6,0.7,5.6,3.1,5.6,6.3c0,4.8-4.3,7.2-8.4,7.2c-4.3,0-9.1-2.2-9.8-7.6l4.9-0.8c0.3,2.8,2,3.8,4.8,3.8
			c2.1,0,3.5-0.8,3.5-2.1c0-1.2-0.7-2.1-3-2.5l-3.4-0.6c-3.6-0.7-5.8-3.2-5.8-6.4C736.9,174.7,741.4,172.7,745,172.7z"/>
		<path class="st1" d="M640.7,219.3l5.1,14.9l5.1-14.9h5.9l-8.8,22.1h-4.4l-8.8-22.1H640.7z"/>
		<path class="st1" d="M678.7,236.4c1.7,0.5,2.2,1.6,1.9,2.8c-0.3,1.1-1.4,2-3.1,1.5l-17.1-4.3c-1.7-0.5-2.2-1.7-1.9-2.9
			c0.3-1.1,1.4-1.9,3.1-1.5L678.7,236.4z M676.9,225.6c0,1.8-1.4,3-3,3s-3-1.2-3-3s1.4-3,3-3S676.9,223.8,676.9,225.6z"/>
		<path class="st1" d="M691.1,219.3v3c1.5-2.1,3.8-3.6,7.2-3.6c4.3,0,9.3,3.6,9.3,11.3c0,8.1-4.8,12-9.8,12c-2.6,0-5-1-6.8-3.5v10.6
			h-5.4v-29.8H691.1z M691.1,230.3c0,4.5,2.6,6.9,5.5,6.9c2.8,0,5.6-2.2,5.6-6.9c0-4.6-2.8-6.8-5.6-6.8
			C693.7,223.4,691.1,225.5,691.1,230.3z"/>
		<path class="st1" d="M717,219.3v3c1.5-2.1,3.8-3.6,7.2-3.6c4.3,0,9.3,3.6,9.3,11.3c0,8.1-4.8,12-9.8,12c-2.6,0-5-1-6.8-3.5v10.6
			h-5.4v-29.8H717z M717,230.3c0,4.5,2.6,6.9,5.5,6.9c2.8,0,5.6-2.2,5.6-6.9c0-4.6-2.8-6.8-5.6-6.8C719.6,223.4,717,225.5,717,230.3
			z"/>
		<path class="st1" d="M745,218.7c4.4,0,7.7,2.1,9.1,7.3l-4.9,0.8c-0.1-2.6-1.7-3.5-4.1-3.5c-1.8,0-3.2,0.8-3.2,2.1
			c0,1,0.7,2,2.8,2.4l3.7,0.7c3.6,0.7,5.6,3.1,5.6,6.3c0,4.8-4.3,7.2-8.4,7.2c-4.3,0-9.1-2.2-9.8-7.6l4.9-0.8c0.3,2.8,2,3.8,4.8,3.8
			c2.1,0,3.5-0.8,3.5-2.1c0-1.2-0.7-2.1-3-2.5l-3.4-0.6c-3.6-0.7-5.8-3.2-5.8-6.4C736.9,220.8,741.4,218.7,745,218.7z"/>
		<path class="st1" d="M640.7,265.3l5.1,14.9l5.1-14.9h5.9l-8.8,22.1h-4.4l-8.8-22.1H640.7z"/>
		<path class="st1" d="M678.4,279.9c1.7,0,2.5,1.1,2.5,2.3v1.6c0,4.9-4.9,10-12,10s-12-5.1-12-10v-1.6c0-1.2,0.8-2.3,2.5-2.3H678.4z
			 M668.9,289.5c5.4,0,7.6-2.6,7.6-5.2v-0.1h-15.1v0.1C661.3,286.8,663.4,289.5,668.9,289.5z M676.9,271.6c0,1.8-1.4,3-3,3
			s-3-1.2-3-3s1.4-3,3-3S676.9,269.8,676.9,271.6z"/>
		<path class="st1" d="M691.1,265.3v3c1.5-2.1,3.8-3.6,7.2-3.6c4.3,0,9.3,3.6,9.3,11.3c0,8.1-4.8,12-9.8,12c-2.6,0-5-1-6.8-3.5v10.6
			h-5.4v-29.8H691.1z M691.1,276.3c0,4.5,2.6,6.9,5.5,6.9c2.8,0,5.6-2.2,5.6-6.9c0-4.6-2.8-6.8-5.6-6.8
			C693.7,269.5,691.1,271.6,691.1,276.3z"/>
		<path class="st1" d="M717,265.3v3c1.5-2.1,3.8-3.6,7.2-3.6c4.3,0,9.3,3.6,9.3,11.3c0,8.1-4.8,12-9.8,12c-2.6,0-5-1-6.8-3.5v10.6
			h-5.4v-29.8H717z M717,276.3c0,4.5,2.6,6.9,5.5,6.9c2.8,0,5.6-2.2,5.6-6.9c0-4.6-2.8-6.8-5.6-6.8C719.6,269.5,717,271.6,717,276.3
			z"/>
		<path class="st1" d="M745,264.7c4.4,0,7.7,2.1,9.1,7.3l-4.9,0.8c-0.1-2.6-1.7-3.5-4.1-3.5c-1.8,0-3.2,0.8-3.2,2.1
			c0,1,0.7,2,2.8,2.4l3.7,0.7c3.6,0.7,5.6,3.1,5.6,6.3c0,4.8-4.3,7.2-8.4,7.2c-4.3,0-9.1-2.2-9.8-7.6l4.9-0.8c0.3,2.8,2,3.8,4.8,3.8
			c2.1,0,3.5-0.8,3.5-2.1c0-1.2-0.7-2.1-3-2.5l-3.4-0.6c-3.6-0.7-5.8-3.2-5.8-6.4C736.9,266.8,741.4,264.7,745,264.7z"/>
		<path class="st1" d="M640.7,311.3l5.1,14.9l5.1-14.9h5.9l-8.8,22.1h-4.4l-8.8-22.1H640.7z"/>
		<path class="st1" d="M669.5,329.8l7.1-3.4c1.5-0.7,2.7-0.2,3.2,0.9s0.2,2.3-1.3,3l-4,1.9l3.9,1.9c1.7,0.8,1.9,2.1,1.4,3.1
			s-1.7,1.5-3.1,0.8l-7.1-3.4l-7,3.4c-1.6,0.8-2.8,0.2-3.2-0.8c-0.5-1.1-0.2-2.3,1.4-3.1l3.9-1.9l-4-1.9c-1.5-0.7-1.8-1.9-1.3-3
			c0.5-1,1.7-1.6,3.2-0.8L669.5,329.8z M676.9,317.6c0,1.8-1.4,3-3,3s-3-1.2-3-3s1.4-3,3-3S676.9,315.9,676.9,317.6z"/>
		<path class="st1" d="M691.1,311.4v3c1.5-2.1,3.8-3.6,7.2-3.6c4.3,0,9.3,3.6,9.3,11.3c0,8.1-4.8,12-9.8,12c-2.6,0-5-1-6.8-3.5v10.6
			h-5.4v-29.8H691.1z M691.1,322.3c0,4.5,2.6,6.9,5.5,6.9c2.8,0,5.6-2.2,5.6-6.9c0-4.6-2.8-6.8-5.6-6.8
			C693.7,315.5,691.1,317.6,691.1,322.3z"/>
		<path class="st1" d="M717,311.4v3c1.5-2.1,3.8-3.6,7.2-3.6c4.3,0,9.3,3.6,9.3,11.3c0,8.1-4.8,12-9.8,12c-2.6,0-5-1-6.8-3.5v10.6
			h-5.4v-29.8H717z M717,322.3c0,4.5,2.6,6.9,5.5,6.9c2.8,0,5.6-2.2,5.6-6.9c0-4.6-2.8-6.8-5.6-6.8C719.6,315.5,717,317.6,717,322.3
			z"/>
		<path class="st1" d="M745,310.7c4.4,0,7.7,2.1,9.1,7.3l-4.9,0.8c-0.1-2.6-1.7-3.5-4.1-3.5c-1.8,0-3.2,0.8-3.2,2.1
			c0,1,0.7,2,2.8,2.4l3.7,0.7c3.6,0.7,5.6,3.1,5.6,6.3c0,4.8-4.3,7.2-8.4,7.2c-4.3,0-9.1-2.2-9.8-7.6l4.9-0.8c0.3,2.8,2,3.8,4.8,3.8
			c2.1,0,3.5-0.8,3.5-2.1c0-1.2-0.7-2.1-3-2.5l-3.4-0.6c-3.6-0.7-5.8-3.2-5.8-6.4C736.9,312.8,741.4,310.7,745,310.7z"/>
		<path class="st1" d="M640.7,357.3l5.1,14.9l5.1-14.9h5.9l-8.8,22.1h-4.4l-8.8-22.1H640.7z"/>
		<path class="st1" d="M670.4,373.6c3.3,0,5.5-0.7,7.4-1.6c1.5-0.8,3.1-0.6,3.7,0.5c0.6,1.1,0.1,2.6-1.4,3.4c-3.3,1.8-6,2.2-9.7,2.2
			c-3.3,0-8.6-0.9-12.2-3.8c-1.2-0.9-1.5-2.4-0.7-3.4s2.3-1,3.6,0C663.4,372.5,667.7,373.6,670.4,373.6z M676.9,363.7
			c0,1.8-1.4,3-3,3s-3-1.2-3-3s1.4-3,3-3S676.9,361.9,676.9,363.7z"/>
		<path class="st1" d="M691.1,357.4v3c1.5-2.1,3.8-3.6,7.2-3.6c4.3,0,9.3,3.6,9.3,11.3c0,8.1-4.8,12-9.8,12c-2.6,0-5-1-6.8-3.5v10.6
			h-5.4v-29.8H691.1z M691.1,368.4c0,4.5,2.6,6.9,5.5,6.9c2.8,0,5.6-2.2,5.6-6.9c0-4.6-2.8-6.8-5.6-6.8
			C693.7,361.5,691.1,363.6,691.1,368.4z"/>
		<path class="st1" d="M717,357.4v3c1.5-2.1,3.8-3.6,7.2-3.6c4.3,0,9.3,3.6,9.3,11.3c0,8.1-4.8,12-9.8,12c-2.6,0-5-1-6.8-3.5v10.6
			h-5.4v-29.8H717z M717,368.4c0,4.5,2.6,6.9,5.5,6.9c2.8,0,5.6-2.2,5.6-6.9c0-4.6-2.8-6.8-5.6-6.8C719.6,361.5,717,363.6,717,368.4
			z"/>
		<path class="st1" d="M745,356.8c4.4,0,7.7,2.1,9.1,7.3l-4.9,0.8c-0.1-2.6-1.7-3.5-4.1-3.5c-1.8,0-3.2,0.8-3.2,2.1
			c0,1,0.7,2,2.8,2.4l3.7,0.7c3.6,0.7,5.6,3.1,5.6,6.3c0,4.8-4.3,7.2-8.4,7.2c-4.3,0-9.1-2.2-9.8-7.6l4.9-0.8c0.3,2.8,2,3.8,4.8,3.8
			c2.1,0,3.5-0.8,3.5-2.1c0-1.2-0.7-2.1-3-2.5l-3.4-0.6c-3.6-0.7-5.8-3.2-5.8-6.4C736.9,358.8,741.4,356.8,745,356.8z"/>
		<path class="st1" d="M640.7,403.4l5.1,14.9l5.1-14.9h5.9l-8.8,22.1h-4.4l-8.8-22.1H640.7z"/>
		<path class="st1" d="M664.1,416.9c5.6,0,6,5.1,9.3,5.1c1.7,0,2.2-1.6,2.4-2.7c0.2-1.3,1.3-2.1,2.5-2c1.3,0.2,1.9,1.5,1.7,2.7
			c-0.5,3.5-2.7,6.4-6.6,6.4c-5.6,0-6-5.1-9.3-5.1c-1.7,0-2.1,1.6-2.4,2.7c-0.3,1.3-1.3,2.1-2.5,2c-1.3-0.2-1.9-1.5-1.7-2.7
			C658,419.8,660.2,416.9,664.1,416.9z M676.9,409.7c0,1.8-1.4,3-3,3s-3-1.2-3-3s1.4-3,3-3S676.9,407.9,676.9,409.7z"/>
		<path class="st1" d="M691.1,403.4v3c1.5-2.1,3.8-3.6,7.2-3.6c4.3,0,9.3,3.6,9.3,11.3c0,8.1-4.8,12-9.8,12c-2.6,0-5-1-6.8-3.5v10.6
			h-5.4v-29.8H691.1z M691.1,414.4c0,4.5,2.6,6.9,5.5,6.9c2.8,0,5.6-2.2,5.6-6.9c0-4.6-2.8-6.8-5.6-6.8
			C693.7,407.6,691.1,409.7,691.1,414.4z"/>
		<path class="st1" d="M717,403.4v3c1.5-2.1,3.8-3.6,7.2-3.6c4.3,0,9.3,3.6,9.3,11.3c0,8.1-4.8,12-9.8,12c-2.6,0-5-1-6.8-3.5v10.6
			h-5.4v-29.8H717z M717,414.4c0,4.5,2.6,6.9,5.5,6.9c2.8,0,5.6-2.2,5.6-6.9c0-4.6-2.8-6.8-5.6-6.8C719.6,407.6,717,409.7,717,414.4
			z"/>
		<path class="st1" d="M745,402.8c4.4,0,7.7,2.1,9.1,7.3l-4.9,0.8c-0.1-2.6-1.7-3.5-4.1-3.5c-1.8,0-3.2,0.8-3.2,2.1
			c0,1,0.7,2,2.8,2.4l3.7,0.7c3.6,0.7,5.6,3.1,5.6,6.3c0,4.8-4.3,7.2-8.4,7.2c-4.3,0-9.1-2.2-9.8-7.6l4.9-0.8c0.3,2.8,2,3.8,4.8,3.8
			c2.1,0,3.5-0.8,3.5-2.1c0-1.2-0.7-2.1-3-2.5l-3.4-0.6c-3.6-0.7-5.8-3.2-5.8-6.4C736.9,404.9,741.4,402.8,745,402.8z"/>
	</g>
</g>
</svg>
